{"title":"The.Pee-wee.Herman.Show.on.Broadway.2011.BRRip.Ac3.Xvid.ANALOG","uid":6827937,"size":1566352421,"categoryP":"video","categoryS":"movies","magnet":"?xt=urn:btih:4bcf202f2dad363044e4eaca23c05521f47752ee&amp;dn=The.Pee-wee.Herman.Show.on.Broadway.2011.BRRip.Ac3.Xvid.ANALOG&amp;tr=udp%3A%2F%2Ftracker.openbittorrent.com%3A80&amp;tr=udp%3A%2F%2Fopen.demonii.com%3A1337&amp;tr=udp%3A%2F%2Ftracker.coppersurfer.tk%3A6969&amp;tr=udp%3A%2F%2Fexodus.desync.com%3A6969","seeders":0,"leechers":0,"uploader":"sceneline","files":9,"time":1321650351,"description":"- &lt;a href=&quot;\nhttp://www.Speed.Cd&quot; rel=&quot;nofollow&quot; target=&quot;_NEW&quot;&gt;\nhttp://www.Speed.Cd&lt;/a&gt;      fast  and The Hottest Private Tracker on the net\n\n   signup is open now\n\nPlease Seed back to make the speed Faster!!!\n\n------------------nfo--------------------------\n-[img]http://www.moviespack.com/wp-content/uploads/2011/10/the-pee-wee-herman-show-on-broadway-203x300.jpg[/img]\n[img]http://img855.imageshack.us/img855/4060/tpwhsbrrogavisnapshot00.png[/img]\n[img]http://img404.imageshack.us/img404/4060/tpwhsbrrogavisnapshot00.png[/img]\n[img]http://img41.imageshack.us/img41/4060/tpwhsbrrogavisnapshot00.png[/img]\n[img]http://img191.imageshack.us/img191/3223/tpwhsbrrogavisnapshot01.png[/img] &lt;a href=&quot;\nhttp://www.imdb.com/title/tt1839648/&quot; rel=&quot;nofollow&quot; target=&quot;_NEW&quot;&gt;\nhttp://www.imdb.com/title/tt1839648/&lt;/a&gt;\nComplete name                            : C:\\Users\\root\\Desktop\\The.Pee-wee.Herman.Show.on.Broadway.2011.BRRip.Ac3.Xvid.ANALOG\\T.P.W.H.S.BRR.ANALOG.avi\nFormat                                   : AVI\nFormat/Info                              : Audio Video Interleave\nFile size                                : 1.45 GiB\nDuration                                 : 1h 28mn\nOverall bit rate                         : 2 331 Kbps\nMovie name                               : T.P.W.H.S.BRR.ANALOG\nWriting application                      : VirtualDub build 32842/release\nCopyright                                : ANALOG\nEncoded by                               : Cooperman\n\nVideo\nID                                       : 0\nFormat                                   : MPEG-4 Visual\nFormat profile                           : Advanced Simple@L5\nFormat settings, BVOP                    : 1\nFormat settings, QPel                    : Yes\nFormat settings, GMC                     : No warppoints\nFormat settings, Matrix                  : Default (H.263)\nMuxing mode                              : Packed bitstream\nCodec ID                                 : XVID\nCodec ID/Hint                            : XviD\nDuration                                 : 1h 28mn\nBit rate                                 : 1 935 Kbps\nWidth                                    : 720 pixels\nHeight                                   : 404 pixels\nDisplay aspect ratio                     : 16:9\nFrame rate                               : 29.970 fps\nColor space                              : YUV\nChroma subsampling                       : 4:2:0\nBit depth                                : 8 bits\nScan type                                : Progressive\nCompression mode                         : Lossy\nBits/(Pixel*Frame)                       : 0.222\nStream size                              : 1.20 GiB (83%)\nWriting library                          : XviD 1.2.1 (UTC 2008-12-04)\n\nAudio\nID                                       : 1\nFormat                                   : AC-3\nFormat/Info                              : Audio Coding 3\nMode extension                           : CM (complete main)\nCodec ID                                 : 2000\nDuration                                 : 1h 28mn\nBit rate mode                            : Constant\nBit rate                                 : 384 Kbps\nChannel(s)                               : 2 channels\nChannel positions                        : Front: L R\nSampling rate                            : 48.0 KHz\nBit depth                                : 16 bits\nCompression mode                         : Lossy\nStream size                              : 244 MiB (16%)\nAlignment                                : Aligned on interleaves\nInterleave, duration                     : 33 ms (1.00 video frame)\nInterleave, preload duration             : 512 ms\nLanguage                                 : English\nSample                                   : Yes! check it!! thats what its for!!\nSource file                              : The.Pee-wee.Herman.Show.on.Broadway.2011.1080p.BluRay.x264-aAF  THANX aAF :)\nAs humans, we perceive the world in analog. Everything we see and hear is a continuous transmission of information to our &lt;a class=&quot;__cf_email__&quot; href=&quot;/cdn-cgi/l/email-protection&quot; data-cfemail=&quot;daa9bfb4a9bfa9f49b949b96959df48af4e8f48a9a928f8992979b9396f4999597&quot;&gt;[email&amp;#160;protected]&lt;/a&gt;&lt;script cf-hash='f9e31' type=&quot;text/javascript&quot;&gt;\n/* &lt;![CDATA[ */!function(){try{var t=&quot;currentScript&quot;in document?document.currentScript:function(){for(var t=document.getElementsByTagName(&quot;script&quot;),e=t.length;e--;)if(t[e].getAttribute(&quot;cf-hash&quot;))return t[e]}();if(t&amp;&amp;t.previousSibling){var e,r,n,i,c=t.previousSibling,a=c.getAttribute(&quot;data-cfemail&quot;);if(a){for(e=&quot;&quot;,r=parseInt(a.substr(0,2),16),n=2;a.length-n;n+=2)i=parseInt(a.substr(n,2),16)^r,e+=String.fromCharCode(i);e=document.createTextNode(e),c.parentNode.replaceChild(e,c)}}}catch(u){}}();/* ]]&gt; */&lt;/script&gt;\nGREATINGS TO ALL THE P2P PLACES I LURK AT!!","torrent":{"xt":"urn:btih:4bcf202f2dad363044e4eaca23c05521f47752ee","amp;dn":"The.Pee-wee.Herman.Show.on.Broadway.2011.BRRip.Ac3.Xvid.ANALOG","amp;tr":["udp%3A%2F%2Ftracker.openbittorrent.com%3A80","udp%3A%2F%2Fopen.demonii.com%3A1337","udp%3A%2F%2Ftracker.coppersurfer.tk%3A6969","udp%3A%2F%2Fexodus.desync.com%3A6969"],"infoHash":"4bcf202f2dad363044e4eaca23c05521f47752ee","infoHashBuffer":{"type":"Buffer","data":[75,207,32,47,45,173,54,48,68,228,234,202,35,192,85,33,244,119,82,238]},"announce":[],"urlList":[]}}